<svg xmlns="http://www.w3.org/2000/svg" xmlns:xlink="http://www.w3.org/1999/xlink" width="123.748" height="17.917" viewBox="0 0 123.748 17.917">
  <defs>
    <clipPath id="clip-path">
      <path id="Clip_12" data-name="Clip 12" d="M0,17.917H123.748V0H0Z" transform="translate(0 0.083)" fill="none"/>
    </clipPath>
  </defs>
  <g id="Group_42" data-name="Group 42" transform="translate(0 -0.083)">
    <path id="Fill_1" data-name="Fill 1" d="M0,0V3.24H.692V1.863H2.084V1.38H.692V.486h1.5V0Z" transform="translate(0 14.76)" fill="#50c1eb"/>
    <path id="Fill_2" data-name="Fill 2" d="M.222,3.24H.873V0H.222Z" transform="translate(3.647 14.76)" fill="#50c1eb"/>
    <g id="Group_41" data-name="Group 41">
      <path id="Fill_3" data-name="Fill 3" d="M0,3.266V0H.687l.849,1.4A9.132,9.132,0,0,1,2.095,2.5l.012,0c-.042-.434-.054-.855-.054-1.355V0h.555V3.266H1.986L1.128,1.829A11.155,11.155,0,0,1,.538.7l-.014,0c.023.425.031.856.031,1.392V3.266Z" transform="translate(6.694 14.68)" fill="#50c1eb"/>
      <path id="Fill_5" data-name="Fill 5" d="M.621,3.267H0L1.055,0H1.82L2.887,3.265H2.243l-.3-.923H.9l-.28.923ZM1.408.473,1.377.605c-.039.164-.079.33-.124.479L1,1.892h.847l-.259-.806C1.539.931,1.5.768,1.456.611L1.419.473Z" transform="translate(11.211 14.681)" fill="#50c1eb"/>
      <path id="Fill_7" data-name="Fill 7" d="M0,3.266V0H.687l.848,1.4A8.986,8.986,0,0,1,2.094,2.5l.012,0c-.042-.434-.053-.855-.053-1.355V0h.554V3.266H1.985L1.127,1.829A11.145,11.145,0,0,1,.538.7l-.015,0c.023.425.031.856.031,1.392V3.266Z" transform="translate(16.017 14.68)" fill="#50c1eb"/>
      <path id="Fill_9" data-name="Fill 9" d="M2.53,3.221a2.137,2.137,0,0,1-.853.147A1.548,1.548,0,0,1,0,1.723,1.65,1.65,0,0,1,1.759,0a1.856,1.856,0,0,1,.8.144L2.426.62A1.589,1.589,0,0,0,1.784.492a1.091,1.091,0,0,0-1.152,1.2A1.071,1.071,0,0,0,1.776,2.869a1.75,1.75,0,0,0,.654-.118Z" transform="translate(20.605 14.629)" fill="#50c1eb"/>
      <path id="Clip_12-2" data-name="Clip 12" d="M0,17.917H123.748V0H0Z" transform="translate(0 0.083)" fill="none"/>
      <g id="Group_41-2" data-name="Group 41" clip-path="url(#clip-path)">
        <path id="Fill_11" data-name="Fill 11" d="M.2,3.266H.8V0H.2Z" transform="translate(24.902 14.681)" fill="#50c1eb"/>
        <path id="Fill_13" data-name="Fill 13" d="M.62,3.267H0L1.055,0H1.82L2.886,3.265H2.243l-.3-.923H.9L.62,3.266ZM1.408.473,1.379.594c-.04.166-.081.336-.127.49L1,1.892h.847l-.259-.806c-.053-.173-.1-.363-.146-.53L1.419.473Z" transform="translate(27.614 14.681)" fill="#50c1eb"/>
        <path id="Fill_14" data-name="Fill 14" d="M0,0H.6V2.766H1.953v.5H0Z" transform="translate(32.419 14.68)" fill="#50c1eb"/>
        <path id="Fill_15" data-name="Fill 15" d="M.133,2.668a1.679,1.679,0,0,0,.794.208c.383,0,.6-.179.6-.446,0-.246-.166-.391-.583-.541C.4,1.7.052,1.406.052.939.052.4.5,0,1.216,0A1.743,1.743,0,0,1,2,.163L1.86.644A1.429,1.429,0,0,0,1.2.489C.823.489.66.69.66.882c0,.251.191.368.629.535.572.217.845.5.845.97,0,.525-.4.981-1.246.981A1.919,1.919,0,0,1,0,3.161Z" transform="translate(38.614 14.628)" fill="#50c1eb"/>
        <path id="Fill_16" data-name="Fill 16" d="M1.839,1.817H.6v.958H1.986v.491H0V0H1.912V.492H.6v.839H1.839Z" transform="translate(42.752 14.68)" fill="#50c1eb"/>
        <path id="Fill_17" data-name="Fill 17" d="M.6,3.292H0V.069A5.608,5.608,0,0,1,.91,0,1.519,1.519,0,0,1,1.924.263a.817.817,0,0,1,.284.656.868.868,0,0,1-.6.816v.014a.824.824,0,0,1,.459.632l.035.14a5.572,5.572,0,0,0,.222.769H1.711a4.243,4.243,0,0,1-.22-.77C1.4,2.1,1.247,1.957.9,1.949H.6V3.291ZM.968.45A1.658,1.658,0,0,0,.6.48V1.512H.951c.4,0,.659-.212.659-.539S1.382.451.968.45Z" transform="translate(46.725 14.655)" fill="#50c1eb"/>
        <path id="Fill_18" data-name="Fill 18" d="M1.065,3.266,0,0H.656L1.1,1.486c.127.411.236.794.322,1.189h.011c.087-.385.206-.784.334-1.181L2.25,0h.639L1.753,3.266Z" transform="translate(50.67 14.68)" fill="#50c1eb"/>
        <path id="Fill_19" data-name="Fill 19" d="M.2,3.266H.8V0H.2Z" transform="translate(55.171 14.681)" fill="#50c1eb"/>
        <path id="Fill_20" data-name="Fill 20" d="M2.53,3.221a2.137,2.137,0,0,1-.853.147A1.548,1.548,0,0,1,0,1.723,1.65,1.65,0,0,1,1.759,0a1.851,1.851,0,0,1,.8.144L2.426.62A1.589,1.589,0,0,0,1.784.492a1.091,1.091,0,0,0-1.152,1.2A1.071,1.071,0,0,0,1.776,2.869a1.75,1.75,0,0,0,.654-.118Z" transform="translate(57.954 14.629)" fill="#50c1eb"/>
        <path id="Fill_21" data-name="Fill 21" d="M1.839,1.817H.6v.958H1.986v.491H0V0H1.912V.492H.6v.839H1.839Z" transform="translate(62.455 14.68)" fill="#50c1eb"/>
        <path id="Fill_22" data-name="Fill 22" d="M.133,2.668a1.679,1.679,0,0,0,.794.208c.383,0,.6-.179.6-.446,0-.246-.166-.391-.583-.541C.4,1.7.053,1.406.053.939.053.4.5,0,1.216,0A1.743,1.743,0,0,1,2,.163L1.86.644A1.429,1.429,0,0,0,1.2.489C.823.489.66.69.66.882c0,.251.191.368.629.535.572.217.845.5.845.97,0,.525-.4.981-1.245.981A1.924,1.924,0,0,1,0,3.161Z" transform="translate(66.284 14.628)" fill="#50c1eb"/>
        <path id="Fill_23" data-name="Fill 23" d="M.62,3.267H0L1.055,0H1.82L2.886,3.265H2.243l-.3-.923H.9L.62,3.266ZM1.408.473,1.377.605c-.039.164-.079.33-.124.479L1,1.892h.847l-.259-.806C1.539.931,1.5.768,1.456.611L1.419.473Z" transform="translate(72.652 14.681)" fill="#50c1eb"/>
        <path id="Fill_24" data-name="Fill 24" d="M.133,2.668a1.679,1.679,0,0,0,.794.208c.383,0,.6-.179.6-.446,0-.246-.166-.391-.583-.541C.4,1.7.052,1.406.052.939.052.4.5,0,1.216,0A1.743,1.743,0,0,1,2,.163L1.86.644A1.429,1.429,0,0,0,1.2.489C.823.489.66.69.66.882c0,.251.191.368.629.535.572.217.845.5.845.97,0,.525-.4.981-1.246.981A1.919,1.919,0,0,1,0,3.161Z" transform="translate(77.313 14.628)" fill="#50c1eb"/>
        <path id="Fill_25" data-name="Fill 25" d="M.62,3.267H0L1.055,0H1.82L2.886,3.265H2.242l-.3-.923H.9L.62,3.266ZM1.409.473c-.013.05-.025.1-.038.157-.037.153-.075.312-.118.455L1,1.892h.848l-.259-.806c-.053-.173-.1-.363-.146-.53L1.419.473Z" transform="translate(83.681 14.681)" fill="#50c1eb"/>
        <path id="Fill_26" data-name="Fill 26" d="M.6,3.292H0V.068A5.475,5.475,0,0,1,.92,0a1.489,1.489,0,0,1,.967.267A.921.921,0,0,1,2.21.99a.989.989,0,0,1-.281.74A1.442,1.442,0,0,1,.89,2.082,1.463,1.463,0,0,1,.6,2.059V3.291ZM.943.459A1.7,1.7,0,0,0,.6.488v1.1a1.2,1.2,0,0,0,.294.027c.453,0,.723-.226.723-.606C1.613.66,1.369.459.943.459Z" transform="translate(90.959 14.655)" fill="#50c1eb"/>
        <path id="Fill_27" data-name="Fill 27" d="M0,0H.6V2.766H1.953v.5H0Z" transform="translate(95.147 14.68)" fill="#50c1eb"/>
        <path id="Fill_28" data-name="Fill 28" d="M.62,3.267H0L1.055,0H1.82L2.886,3.265H2.242l-.3-.923H.9L.62,3.266ZM1.409.473c-.013.05-.025.1-.038.157-.037.153-.075.312-.118.455L1,1.892h.847l-.259-.806c-.053-.173-.1-.363-.146-.53L1.419.473Z" transform="translate(98.792 14.681)" fill="#50c1eb"/>
        <path id="Fill_29" data-name="Fill 29" d="M.939.5H0V0H2.487V.5H1.539V3.266h-.6Z" transform="translate(102.895 14.681)" fill="#50c1eb"/>
        <path id="Fill_30" data-name="Fill 30" d="M0,0H1.9V.491H.6v.9H1.81v.488H.6V3.266H0Z" transform="translate(107.225 14.68)" fill="#50c1eb"/>
        <path id="Fill_31" data-name="Fill 31" d="M1.516,3.374A1.51,1.51,0,0,1,0,1.711,1.571,1.571,0,0,1,1.564,0,1.508,1.508,0,0,1,3.09,1.653,1.548,1.548,0,0,1,1.516,3.374Zm.032-2.9C1.094.478.634.856.634,1.7c0,.716.366,1.2.912,1.2s.91-.49.91-1.219C2.456,1.1,2.172.478,1.549.478Z" transform="translate(110.998 14.627)" fill="#50c1eb"/>
        <path id="Fill_32" data-name="Fill 32" d="M.6,3.292H0V.069A5.608,5.608,0,0,1,.91,0,1.519,1.519,0,0,1,1.924.263a.817.817,0,0,1,.284.656.868.868,0,0,1-.6.816v.014a.824.824,0,0,1,.459.632l.035.14a5.572,5.572,0,0,0,.222.769H1.711a4.243,4.243,0,0,1-.22-.77C1.4,2.1,1.247,1.957.9,1.949H.6V3.291ZM.968.45A1.658,1.658,0,0,0,.6.48V1.512H.951c.4,0,.659-.212.659-.539S1.382.451.968.45Z" transform="translate(116.064 14.655)" fill="#50c1eb"/>
        <path id="Fill_33" data-name="Fill 33" d="M2.856,1.934C2.835,1.512,2.814,1,2.817.559H2.8c-.108.4-.246.841-.387,1.254L1.933,3.228H1.471L1.034,1.833C.905,1.414.788.97.7.559H.693C.677.986.657,1.509.633,1.954L.56,3.266H0L.219,0h.788l.428,1.312c.118.385.224.773.3,1.137h.014c.089-.357.2-.756.329-1.14L2.537,0h.778l.19,3.266H2.919Z" transform="translate(120.222 14.681)" fill="#50c1eb"/>
        <path id="Fill_34" data-name="Fill 34" d="M14.359,11.165H0V0H14.359a3.638,3.638,0,0,1,1.126.167A3.437,3.437,0,0,1,16.4.622a3.094,3.094,0,0,1,1.052,1.284,2.314,2.314,0,0,1,.121,1.379,2.96,2.96,0,0,1-.68,1.292,4.162,4.162,0,0,1-1.352,1,4.454,4.454,0,0,1,1.352,1.012,2.917,2.917,0,0,1,.68,1.284,2.317,2.317,0,0,1-.121,1.38A3.089,3.089,0,0,1,16.4,10.543a3.412,3.412,0,0,1-.914.454A3.587,3.587,0,0,1,14.359,11.165ZM4.274,1.834V9.282H11.9a1.352,1.352,0,0,0,.243-.015,1.28,1.28,0,0,0,.7-.321A1.466,1.466,0,0,0,13.2,8.48a1.3,1.3,0,0,0,.139-.593,1.336,1.336,0,0,0-.421-.986A1.42,1.42,0,0,0,11.9,6.492H4.647l.922-.94a3.022,3.022,0,0,1,1.991-.91L11.9,4.609A1.425,1.425,0,0,0,12.919,4.2a1.352,1.352,0,0,0,0-1.961A1.422,1.422,0,0,0,11.9,1.834Z" transform="translate(0.001 0.099)" fill="#242c4c"/>
        <path id="Fill_35" data-name="Fill 35" d="M0,11.164,7.366,0h5.6l7.366,11.164H15.347L13.615,8.533H6.248l.922-.942a3.018,3.018,0,0,1,1.992-.909h3.221L9.261,1.947l-5.894,9.2Z" transform="translate(17.712 0.146)" fill="#242c4c"/>
        <path id="Fill_36" data-name="Fill 36" d="M12.353,1.882v9.282H8.079V1.882H0q.374-.369.7-.716a4.819,4.819,0,0,1,.7-.6,3.288,3.288,0,0,1,.793-.41A3.027,3.027,0,0,1,3.206,0H20.415c-.249.247-.483.486-.7.716a4.707,4.707,0,0,1-.7.6,3.23,3.23,0,0,1-.792.41,3.012,3.012,0,0,1-1.012.153Z" transform="translate(35.001 0.131)" fill="#242c4c"/>
        <path id="Fill_37" data-name="Fill 37" d="M18.163,0l-.955.941a3.086,3.086,0,0,1-2.251.91H7.317a2.007,2.007,0,0,0-.89.207,3.136,3.136,0,0,0-.866.534,3.6,3.6,0,0,0-.689.805A4.012,4.012,0,0,0,4.42,4.418a4.255,4.255,0,0,0,0,2.328,4,4,0,0,0,.453,1.021,3.553,3.553,0,0,0,.689.805,3.113,3.113,0,0,0,.866.534,1.981,1.981,0,0,0,.89.208h7.641a3.089,3.089,0,0,1,2.251.909l.955.942H5.65a5.521,5.521,0,0,1-2.194-.439,5.732,5.732,0,0,1-1.8-1.2A5.642,5.642,0,0,1,.446,7.759,5.3,5.3,0,0,1,0,5.6,5.3,5.3,0,0,1,.446,3.436a5.649,5.649,0,0,1,1.214-1.77,5.749,5.749,0,0,1,1.8-1.2A5.521,5.521,0,0,1,5.65.032Z" transform="translate(55.01 0.083)" fill="#242c4c"/>
        <path id="Fill_38" data-name="Fill 38" d="M.046,6.466.826,5.55a3.085,3.085,0,0,1,2.25-.909H9.033V0h4.273V11.163H9.033V6.522H0Z" transform="translate(70.341 0.115)" fill="#242c4c"/>
        <path id="Fill_39" data-name="Fill 39" d="M4.273,1.882V6.348q.355-.352.663-.662a4.083,4.083,0,0,1,.656-.542,2.957,2.957,0,0,1,1.74-.5h8.239V6.523H4.273V9.282H14.748a2.938,2.938,0,0,1,1.012.158,3.384,3.384,0,0,1,.792.419,4.9,4.9,0,0,1,.688.6q.324.341.7.7H0V0H17.937q-.372.368-.7.71a5.236,5.236,0,0,1-.7.606,3.293,3.293,0,0,1-.793.422,2.877,2.877,0,0,1-1.012.16Z" transform="translate(85.268 0.115)" fill="#242c4c"/>
        <path id="Fill_40" data-name="Fill 40" d="M4.276,11.148H0V0H13.906a5.568,5.568,0,0,1,2.2.439,5.791,5.791,0,0,1,1.8,1.2,5.722,5.722,0,0,1,1.214,1.771,5.463,5.463,0,0,1,0,4.322,5.66,5.66,0,0,1-3.01,2.965,5.553,5.553,0,0,1-2.2.439H4.258l.016.015ZM4.258,1.834V9.266h7.8a2.8,2.8,0,0,0,1.288-.3,3.238,3.238,0,0,0,1.019-.819,3.965,3.965,0,0,0,.671-1.186,4.109,4.109,0,0,0,.244-1.416,3.964,3.964,0,0,0-.258-1.433,4.157,4.157,0,0,0-.689-1.177,3.313,3.313,0,0,0-.979-.8,2.373,2.373,0,0,0-1.133-.3Z" transform="translate(104.191 0.146)" fill="#242c4c"/>
      </g>
    </g>
  </g>
</svg>
