<svg id="Batched_logo_Copy" data-name="Batched_logo Copy" xmlns="http://www.w3.org/2000/svg" xmlns:xlink="http://www.w3.org/1999/xlink" width="170" height="25" viewBox="0 0 170 25">
  <defs>
    <clipPath id="clip-path">
      <path id="Clip_12" data-name="Clip 12" d="M0,24.884H169.654V0H0Z" fill="none"/>
    </clipPath>
  </defs>
  <g id="Group_42" data-name="Group 42" transform="translate(0 0.116)">
    <path id="Fill_1" data-name="Fill 1" d="M0,0V4.5H.949V2.588H2.857V1.916H.949V.676H3V0Z" transform="translate(0 20.384)" fill="#50c1eb"/>
    <path id="Fill_2" data-name="Fill 2" d="M.608,4.5H1.5V0H.608Z" transform="translate(4.696 20.384)" fill="#50c1eb"/>
    <g id="Group_41" data-name="Group 41">
      <path id="Fill_3" data-name="Fill 3" d="M0,4.537V0H.941L2.1,1.948a12.747,12.747,0,0,1,.767,1.52l.017,0c-.058-.6-.075-1.188-.075-1.881V0h.762V4.537H2.723l-1.176-2A15.565,15.565,0,0,1,.738.975l-.019,0c.032.59.043,1.189.043,1.934V4.537Z" transform="translate(9.178 20.274)" fill="#50c1eb"/>
      <path id="Fill_5" data-name="Fill 5" d="M.851,4.537H0L1.446,0H2.495L3.958,4.536H3.075L2.668,3.254H1.236L.851,4.537ZM1.931.657,1.887.841c-.053.225-.107.457-.169.665L1.37,2.628H2.531L2.175,1.509C2.111,1.3,2.054,1.076,2,.861l-.053-.2Z" transform="translate(15.37 20.274)" fill="#50c1eb"/>
      <path id="Fill_7" data-name="Fill 7" d="M0,4.537V0H.941L2.1,1.948a12.543,12.543,0,0,1,.767,1.52l.017,0c-.058-.6-.073-1.188-.073-1.881V0h.76V4.537H2.721l-1.176-2A15.552,15.552,0,0,1,.738.975l-.021,0C.749,1.57.76,2.168.76,2.913V4.537Z" transform="translate(21.959 20.274)" fill="#50c1eb"/>
      <path id="Fill_9" data-name="Fill 9" d="M3.469,4.473a2.9,2.9,0,0,1-1.169.2A2.135,2.135,0,0,1,0,2.393,2.277,2.277,0,0,1,2.412,0,2.516,2.516,0,0,1,3.5.2L3.325.861A2.154,2.154,0,0,0,2.446.683,1.506,1.506,0,0,0,.867,2.352,1.479,1.479,0,0,0,2.435,3.985a2.372,2.372,0,0,0,.9-.164Z" transform="translate(28.249 20.202)" fill="#50c1eb"/>
      <path id="Clip_12-2" data-name="Clip 12" d="M0,24.884H169.654V0H0Z" fill="none"/>
      <g id="Group_41-2" data-name="Group 41" clip-path="url(#clip-path)">
        <path id="Fill_11" data-name="Fill 11" d="M.558,4.537h.824V0H.558Z" transform="translate(33.86 20.274)" fill="#50c1eb"/>
        <path id="Fill_13" data-name="Fill 13" d="M.85,4.537H0L1.446,0H2.495L3.957,4.536H3.075L2.666,3.254H1.236L.85,4.537ZM1.931.657,1.893.818c-.052.221-.111.472-.176.688L1.37,2.628H2.531L2.175,1.509c-.072-.236-.138-.495-.2-.722L1.946.657Z" transform="translate(37.858 20.274)" fill="#50c1eb"/>
        <path id="Fill_14" data-name="Fill 14" d="M0,0H.824V3.842H2.677v.7H0Z" transform="translate(44.446 20.273)" fill="#50c1eb"/>
        <path id="Fill_15" data-name="Fill 15" d="M.182,3.705a2.278,2.278,0,0,0,1.089.288c.525,0,.82-.248.82-.619,0-.342-.228-.543-.8-.752C.549,2.356.072,1.953.072,1.3.072.56.69,0,1.667,0A2.364,2.364,0,0,1,2.746.226l-.2.668a1.94,1.94,0,0,0-.9-.215c-.522,0-.745.28-.745.546,0,.349.261.512.862.743.784.3,1.158.7,1.158,1.348,0,.73-.545,1.363-1.708,1.363A2.6,2.6,0,0,1,0,4.391Z" transform="translate(52.938 20.201)" fill="#50c1eb"/>
        <path id="Fill_16" data-name="Fill 16" d="M2.521,2.524H.822V3.855h1.9v.681H0V0H2.622V.683H.822V1.848h1.7Z" transform="translate(58.611 20.273)" fill="#50c1eb"/>
        <path id="Fill_17" data-name="Fill 17" d="M.817,4.572H0V.1A7.548,7.548,0,0,1,1.248,0,2.062,2.062,0,0,1,2.638.365a1.141,1.141,0,0,1,.388.91A1.2,1.2,0,0,1,2.207,2.41v.019a1.137,1.137,0,0,1,.629.877l.056.224a7.361,7.361,0,0,0,.3,1.039H2.345a6.04,6.04,0,0,1-.3-1.07c-.128-.583-.332-.783-.811-.795H.817V4.571ZM1.328.625A2.308,2.308,0,0,0,.817.666V2.1H1.3c.548,0,.9-.293.9-.747S1.9.626,1.328.625Z" transform="translate(64.058 20.238)" fill="#50c1eb"/>
        <path id="Fill_18" data-name="Fill 18" d="M1.46,4.537,0,0H.9l.614,2.064c.174.571.323,1.1.441,1.651H1.97c.119-.535.282-1.088.457-1.64L3.085,0h.876L2.4,4.537Z" transform="translate(69.466 20.274)" fill="#50c1eb"/>
        <path id="Fill_19" data-name="Fill 19" d="M.558,4.537h.824V0H.558Z" transform="translate(75.358 20.274)" fill="#50c1eb"/>
        <path id="Fill_20" data-name="Fill 20" d="M3.469,4.473a2.9,2.9,0,0,1-1.169.2A2.135,2.135,0,0,1,0,2.393,2.277,2.277,0,0,1,2.412,0,2.509,2.509,0,0,1,3.5.2L3.325.861A2.154,2.154,0,0,0,2.446.683,1.506,1.506,0,0,0,.867,2.352,1.478,1.478,0,0,0,2.435,3.985a2.372,2.372,0,0,0,.9-.164Z" transform="translate(79.453 20.202)" fill="#50c1eb"/>
        <path id="Fill_21" data-name="Fill 21" d="M2.521,2.524H.822V3.855h1.9v.681H0V0H2.622V.683H.822V1.848h1.7Z" transform="translate(85.623 20.273)" fill="#50c1eb"/>
        <path id="Fill_22" data-name="Fill 22" d="M.182,3.705a2.278,2.278,0,0,0,1.089.288c.525,0,.82-.248.82-.619,0-.342-.228-.543-.8-.752C.549,2.356.073,1.953.073,1.3.073.56.69,0,1.667,0A2.364,2.364,0,0,1,2.746.226l-.2.668a1.94,1.94,0,0,0-.9-.215c-.522,0-.745.28-.745.546,0,.349.261.512.862.743.784.3,1.158.7,1.158,1.348,0,.73-.545,1.363-1.707,1.363A2.61,2.61,0,0,1,0,4.391Z" transform="translate(90.873 20.201)" fill="#50c1eb"/>
        <path id="Fill_23" data-name="Fill 23" d="M.85,4.537H0L1.446,0H2.495L3.957,4.536H3.075L2.668,3.254H1.236L.85,4.537ZM1.931.657,1.887.841c-.053.225-.107.457-.169.665L1.37,2.628H2.531L2.175,1.509C2.111,1.3,2.054,1.076,2,.861l-.053-.2Z" transform="translate(99.604 20.274)" fill="#50c1eb"/>
        <path id="Fill_24" data-name="Fill 24" d="M.182,3.705a2.278,2.278,0,0,0,1.089.288c.525,0,.82-.248.82-.619,0-.342-.228-.543-.8-.752C.549,2.356.072,1.953.072,1.3.072.56.69,0,1.667,0A2.364,2.364,0,0,1,2.746.226l-.2.668a1.94,1.94,0,0,0-.9-.215c-.522,0-.745.28-.745.546,0,.349.261.512.862.743.784.3,1.158.7,1.158,1.348,0,.73-.545,1.363-1.708,1.363A2.6,2.6,0,0,1,0,4.391Z" transform="translate(105.994 20.201)" fill="#50c1eb"/>
        <path id="Fill_25" data-name="Fill 25" d="M.85,4.537H0L1.446,0H2.495L3.957,4.536H3.074L2.666,3.254H1.236L.85,4.537ZM1.931.657C1.914.726,1.9.8,1.879.873c-.051.215-.1.435-.162.633L1.368,2.628H2.531L2.175,1.509c-.072-.236-.138-.495-.2-.722L1.946.657Z" transform="translate(114.725 20.274)" fill="#50c1eb"/>
        <path id="Fill_26" data-name="Fill 26" d="M.817,4.572H0V.094A7.441,7.441,0,0,1,1.26,0,2.021,2.021,0,0,1,2.588.371a1.284,1.284,0,0,1,.442,1A1.386,1.386,0,0,1,2.644,2.4a1.963,1.963,0,0,1-1.424.488,1.863,1.863,0,0,1-.4-.032V4.572ZM1.294.637a2.331,2.331,0,0,0-.477.04V2.209a1.631,1.631,0,0,0,.4.037c.62,0,.991-.314.991-.84C2.211.917,1.877.637,1.294.637Z" transform="translate(124.701 20.238)" fill="#50c1eb"/>
        <path id="Fill_27" data-name="Fill 27" d="M0,0H.825V3.842H2.677v.7H0Z" transform="translate(130.443 20.273)" fill="#50c1eb"/>
        <path id="Fill_28" data-name="Fill 28" d="M.85,4.537H0L1.446,0H2.495L3.957,4.536H3.074L2.666,3.254H1.236L.85,4.537ZM1.931.657C1.914.726,1.9.8,1.879.873c-.051.215-.1.435-.162.633L1.37,2.628H2.531L2.175,1.509c-.072-.236-.138-.495-.2-.722L1.946.657Z" transform="translate(135.44 20.274)" fill="#50c1eb"/>
        <path id="Fill_29" data-name="Fill 29" d="M1.287.7H0V0H3.41V.7H2.11V4.537H1.287Z" transform="translate(141.065 20.274)" fill="#50c1eb"/>
        <path id="Fill_30" data-name="Fill 30" d="M0,0H2.607V.681H.824V1.933H2.481V2.61H.824V4.537H0Z" transform="translate(147.002 20.273)" fill="#50c1eb"/>
        <path id="Fill_31" data-name="Fill 31" d="M2.079,4.686A1.952,1.952,0,0,1,.562,4.03,2.492,2.492,0,0,1,0,2.377,2.171,2.171,0,0,1,2.145,0,2.083,2.083,0,0,1,4.236,2.3a2.511,2.511,0,0,1-.613,1.765A2.061,2.061,0,0,1,2.079,4.686ZM2.123.663a1.093,1.093,0,0,0-.933.5,2.138,2.138,0,0,0-.321,1.2A2.04,2.04,0,0,0,1.2,3.538a1.1,1.1,0,0,0,.92.484c.746,0,1.247-.681,1.247-1.694C3.367,1.526,2.978.663,2.123.663Z" transform="translate(152.175 20.199)" fill="#50c1eb"/>
        <path id="Fill_32" data-name="Fill 32" d="M.817,4.572H0V.1A7.548,7.548,0,0,1,1.248,0,2.062,2.062,0,0,1,2.638.365a1.141,1.141,0,0,1,.388.91A1.2,1.2,0,0,1,2.207,2.41v.019a1.137,1.137,0,0,1,.629.877l.056.224a7.361,7.361,0,0,0,.3,1.039H2.345a6.04,6.04,0,0,1-.3-1.07c-.128-.583-.332-.783-.811-.795H.817V4.571ZM1.328.625A2.308,2.308,0,0,0,.817.666V2.1H1.3c.548,0,.9-.293.9-.747S1.9.626,1.328.625Z" transform="translate(159.121 20.238)" fill="#50c1eb"/>
        <path id="Fill_33" data-name="Fill 33" d="M3.916,2.686C3.887,2.1,3.857,1.395,3.862.777H3.842c-.148.557-.337,1.168-.531,1.742L2.65,4.483H2.017l-.6-1.937c-.177-.582-.337-1.2-.456-1.77H.95C.929,1.37.9,2.1.868,2.713l-.1,1.824H0L.3,0H1.381l.587,1.822c.162.535.307,1.073.415,1.579H2.4c.122-.5.275-1.05.451-1.584L3.479,0H4.546l.26,4.537H4Z" transform="translate(164.821 20.274)" fill="#50c1eb"/>
        <path id="Fill_34" data-name="Fill 34" d="M19.685,15.506H0V0H19.685a4.919,4.919,0,0,1,1.544.233,4.676,4.676,0,0,1,1.254.63,4.289,4.289,0,0,1,1.441,1.783,3.258,3.258,0,0,1,.167,1.916,4.137,4.137,0,0,1-.933,1.795,5.7,5.7,0,0,1-1.854,1.395,6.1,6.1,0,0,1,1.854,1.407,4.066,4.066,0,0,1,.933,1.783,3.258,3.258,0,0,1-.167,1.916,4.277,4.277,0,0,1-1.441,1.783,4.64,4.64,0,0,1-1.254.63A4.882,4.882,0,0,1,19.685,15.506ZM5.86,2.548V12.892H16.312a1.794,1.794,0,0,0,.333-.022,1.741,1.741,0,0,0,.955-.445,2.043,2.043,0,0,0,.5-.647,1.824,1.824,0,0,0,.189-.823,1.864,1.864,0,0,0-.578-1.37,1.928,1.928,0,0,0-1.4-.568H6.37L7.635,7.709a4.13,4.13,0,0,1,2.73-1.264L16.312,6.4a1.936,1.936,0,0,0,1.4-.566,1.895,1.895,0,0,0,0-2.724,1.935,1.935,0,0,0-1.4-.564Z" transform="translate(0.002 0.021)" fill="#fefefe"/>
        <path id="Fill_35" data-name="Fill 35" d="M0,15.506,10.1,0h7.678l10.1,15.506H21.04l-2.374-3.654H8.566l1.265-1.308a4.114,4.114,0,0,1,2.731-1.262h4.416L12.7,2.7l-8.08,12.78Z" transform="translate(24.282 0.087)" fill="#fefefe"/>
        <path id="Fill_36" data-name="Fill 36" d="M16.935,2.614V15.506H11.076V2.614H0Q.512,2.1.966,1.619A6.632,6.632,0,0,1,1.921.782,4.487,4.487,0,0,1,3.009.212,4.1,4.1,0,0,1,4.4,0H27.988c-.341.343-.662.675-.966.995a6.477,6.477,0,0,1-.955.837,4.408,4.408,0,0,1-1.086.57,4.081,4.081,0,0,1-1.388.212Z" transform="translate(47.985 0.066)" fill="#fefefe"/>
        <path id="Fill_37" data-name="Fill 37" d="M24.9,0,23.593,1.306A4.2,4.2,0,0,1,20.506,2.57H10.031a2.722,2.722,0,0,0-1.22.287A4.291,4.291,0,0,0,7.624,3.6,4.979,4.979,0,0,0,6.68,4.718a5.609,5.609,0,0,0-.621,1.418,5.984,5.984,0,0,0,0,3.233,5.588,5.588,0,0,0,.621,1.418,4.919,4.919,0,0,0,.944,1.119,4.259,4.259,0,0,0,1.187.742,2.687,2.687,0,0,0,1.22.288H20.506A4.207,4.207,0,0,1,23.593,14.2L24.9,15.506H7.745a7.485,7.485,0,0,1-3.007-.61,7.809,7.809,0,0,1-4.127-4.12,7.445,7.445,0,0,1-.611-3,7.45,7.45,0,0,1,.611-3A7.813,7.813,0,0,1,4.738.654,7.485,7.485,0,0,1,7.745.044Z" transform="translate(75.417 0)" fill="#fefefe"/>
        <path id="Fill_38" data-name="Fill 38" d="M.064,8.981,1.132,7.708A4.2,4.2,0,0,1,4.217,6.446h8.167V0h5.859V15.5H12.384V9.058H0Z" transform="translate(96.436 0.044)" fill="#fefefe"/>
        <path id="Fill_39" data-name="Fill 39" d="M5.859,2.614v6.2q.487-.488.909-.92a5.614,5.614,0,0,1,.9-.753,4.016,4.016,0,0,1,2.386-.7h11.3V9.06H5.859v3.832h14.36a3.98,3.98,0,0,1,1.388.219,4.62,4.62,0,0,1,1.086.582,6.749,6.749,0,0,1,.943.835q.444.474.955.978H0V0H24.591q-.51.511-.966.986a7.207,7.207,0,0,1-.954.841,4.5,4.5,0,0,1-1.088.586,3.9,3.9,0,0,1-1.388.222Z" transform="translate(116.899 0.043)" fill="#fefefe"/>
        <path id="Fill_40" data-name="Fill 40" d="M5.862,15.484H0V0H19.065a7.561,7.561,0,0,1,3.009.61A7.807,7.807,0,0,1,26.2,4.73a7.682,7.682,0,0,1,0,6,7.815,7.815,0,0,1-4.127,4.119,7.539,7.539,0,0,1-3.009.61H5.838l.023.021ZM5.838,2.548V12.87h10.7A3.793,3.793,0,0,0,18.3,12.45a4.456,4.456,0,0,0,1.4-1.138,5.548,5.548,0,0,0,.921-1.647A5.808,5.808,0,0,0,20.953,7.7,5.55,5.55,0,0,0,20.6,5.709a5.791,5.791,0,0,0-.944-1.636A4.58,4.58,0,0,0,18.31,2.957a3.221,3.221,0,0,0-1.553-.41Z" transform="translate(142.843 0.087)" fill="#fefefe"/>
      </g>
    </g>
  </g>
</svg>
